<?xml version="1.0" encoding="utf-8"?>
<svg xmlns="http://www.w3.org/2000/svg" xmlns:xlink="http://www.w3.org/1999/xlink" version="1.1" width="2000" height="1800">

<circle cx="100" cy="100" r="10" fill="black" />
<circle cx="400" cy="100" r="10" fill="black" />
<circle cx="200" cy="200" r="10" fill="black" />
<circle cx="300" cy="200" r="10" fill="black" />
<circle cx="200" cy="300" r="10" fill="black" />
<circle cx="300" cy="300" r="10" fill="black" />
<circle cx="100" cy="400" r="10" fill="black" />
<circle cx="400" cy="400" r="10" fill="black" />
<line x1="100" y1="100" x2="100" y2="400" stroke="black" />
<text x="110" y="250" fill="black" >3</text>
<line x1="100" y1="400" x2="400" y2="400" stroke="black" />
<text x="260" y="395" fill="black" >4</text>
<line x1="100" y1="100" x2="200" y2="200" stroke="black" />
<text x="160" y="150" fill="black" >4</text>
<line x1="400" y1="100" x2="300" y2="200" stroke="black" />
<text x="360" y="150" fill="black" >2</text>
<line x1="400" y1="100" x2="400" y2="400" stroke="black" />
<text x="410" y="250" fill="black" >3</text>
<line x1="200" y1="200" x2="200" y2="300" stroke="black" />
<text x="210" y="250" fill="black" >7</text>
<line x1="300" y1="200" x2="300" y2="300" stroke="black" />
<text x="310" y="250" fill="black" >2</text>


</svg>
