<?xml version="1.0" encoding="utf-8"?>
<svg xmlns="http://www.w3.org/2000/svg" xmlns:xlink="http://www.w3.org/1999/xlink" version="1.1" width="2000" height="1800">

<circle cx="225" cy="85" r="10" fill="black" />
<circle cx="175" cy="170" r="10" fill="black" />
<circle cx="275" cy="170" r="10" fill="black" />
<circle cx="125" cy="255" r="10" fill="black" />
<circle cx="225" cy="255" r="10" fill="black" />
<circle cx="325" cy="255" r="10" fill="black" />
<circle cx="75" cy="340" r="10" fill="black" />
<circle cx="175" cy="340" r="10" fill="black" />
<circle cx="275" cy="340" r="10" fill="black" />
<circle cx="375" cy="340" r="10" fill="black" />
<line x1="225" y1="85" x2="275" y2="170" stroke="black" />
<text x="260" y="127" fill="black" >1</text>
<line x1="225" y1="255" x2="175" y2="340" stroke="black" />
<text x="210" y="297" fill="black" >6</text>
<line x1="225" y1="255" x2="275" y2="340" stroke="black" />
<text x="260" y="297" fill="black" >3</text>
<line x1="325" y1="255" x2="275" y2="340" stroke="black" />
<text x="310" y="297" fill="black" >1</text>
<line x1="325" y1="255" x2="375" y2="340" stroke="black" />
<text x="360" y="297" fill="black" >3</text>
<line x1="75" y1="340" x2="175" y2="340" stroke="black" />
<text x="135" y="335" fill="black" >1</text>
<line x1="175" y1="170" x2="275" y2="170" stroke="black" />
<text x="235" y="165" fill="black" >1</text>
<line x1="275" y1="170" x2="225" y2="255" stroke="black" />
<text x="260" y="212" fill="black" >1</text>
<line x1="125" y1="255" x2="75" y2="340" stroke="black" />
<text x="110" y="297" fill="black" >6</text>


</svg>
